STARTFONT 2.1
FONT -gbdfed-DotzFont-Small-R-Normal--5-5-72-72-P-30-FontSpecific-0
SIZE 0 72 72
FONTBOUNDINGBOX 5 5 0 0
STARTPROPERTIES 17
POINT_SIZE 5
PIXEL_SIZE 5
RESOLUTION_X 72
RESOLUTION_Y 72
FONT_ASCENT 5
FONT_DESCENT 0
AVERAGE_WIDTH 30
SPACING "P"
_GBDFED_INFO "Edited with gbdfed 1.6."
FOUNDRY "gbdfed"
FAMILY_NAME "Unknown"
WEIGHT_NAME "Medium"
SLANT "R"
SETWIDTH_NAME "Normal"
ADD_STYLE_NAME ""
CHARSET_REGISTRY "FontSpecific"
CHARSET_ENCODING "0"
ENDPROPERTIES
CHARS 94
STARTCHAR char33
ENCODING 33
SWIDTH -1 0
DWIDTH 2 0
BBX 1 5 1 0
BITMAP
80
80
80
00
80
ENDCHAR
STARTCHAR char34
ENCODING 34
SWIDTH -1 0
DWIDTH 3 0
BBX 3 2 0 3
BITMAP
A0
A0
ENDCHAR
STARTCHAR char35
ENCODING 35
SWIDTH -1 0
DWIDTH 5 0
BBX 5 5 0 0
BITMAP
50
F8
50
F8
50
ENDCHAR
STARTCHAR char36
ENCODING 36
SWIDTH -1 0
DWIDTH 5 0
BBX 5 5 0 0
BITMAP
70
C0
70
18
70
ENDCHAR
STARTCHAR char37
ENCODING 37
SWIDTH -1 0
DWIDTH 5 0
BBX 5 5 0 0
BITMAP
88
10
20
40
88
ENDCHAR
STARTCHAR char38
ENCODING 38
SWIDTH -1 0
DWIDTH 4 0
BBX 4 5 0 0
BITMAP
F0
80
70
90
F0
ENDCHAR
STARTCHAR char39
ENCODING 39
SWIDTH -1 0
DWIDTH 2 0
BBX 1 2 1 3
BITMAP
80
80
ENDCHAR
STARTCHAR char40
ENCODING 40
SWIDTH -1 0
DWIDTH 3 0
BBX 3 5 0 0
BITMAP
60
80
80
80
60
ENDCHAR
STARTCHAR char41
ENCODING 41
SWIDTH -1 0
DWIDTH 3 0
BBX 3 5 0 0
BITMAP
C0
20
20
20
C0
ENDCHAR
STARTCHAR char42
ENCODING 42
SWIDTH -1 0
DWIDTH 2 0
BBX 2 2 0 0
BITMAP
C0
C0
ENDCHAR
STARTCHAR char43
ENCODING 43
SWIDTH -1 0
DWIDTH 3 0
BBX 3 3 0 1
BITMAP
40
E0
40
ENDCHAR
STARTCHAR char44
ENCODING 44
SWIDTH -1 0
DWIDTH 2 0
BBX 2 3 0 0
BITMAP
40
40
80
ENDCHAR
STARTCHAR char45
ENCODING 45
SWIDTH -1 0
DWIDTH 3 0
BBX 3 1 0 2
BITMAP
E0
ENDCHAR
STARTCHAR char46
ENCODING 46
SWIDTH -1 0
DWIDTH 1 0
BBX 1 1 0 4
BITMAP
80
ENDCHAR
STARTCHAR char47
ENCODING 47
SWIDTH -1 0
DWIDTH 3 0
BBX 3 5 0 0
BITMAP
20
20
40
80
80
ENDCHAR
STARTCHAR char48
ENCODING 48
SWIDTH -1 0
DWIDTH 3 0
BBX 3 5 0 0
BITMAP
E0
A0
A0
A0
E0
ENDCHAR
STARTCHAR char49
ENCODING 49
SWIDTH -1 0
DWIDTH 3 0
BBX 3 5 0 0
BITMAP
40
C0
40
40
E0
ENDCHAR
STARTCHAR char50
ENCODING 50
SWIDTH -1 0
DWIDTH 3 0
BBX 3 5 0 0
BITMAP
E0
20
E0
80
E0
ENDCHAR
STARTCHAR char51
ENCODING 51
SWIDTH -1 0
DWIDTH 3 0
BBX 3 5 0 0
BITMAP
E0
20
E0
20
E0
ENDCHAR
STARTCHAR char52
ENCODING 52
SWIDTH -1 0
DWIDTH 3 0
BBX 3 5 0 0
BITMAP
A0
A0
E0
20
20
ENDCHAR
STARTCHAR char53
ENCODING 53
SWIDTH -1 0
DWIDTH 3 0
BBX 3 5 0 0
BITMAP
E0
80
E0
20
E0
ENDCHAR
STARTCHAR char54
ENCODING 54
SWIDTH -1 0
DWIDTH 3 0
BBX 3 5 0 0
BITMAP
E0
80
E0
A0
E0
ENDCHAR
STARTCHAR char55
ENCODING 55
SWIDTH -1 0
DWIDTH 3 0
BBX 3 5 0 0
BITMAP
E0
20
20
20
20
ENDCHAR
STARTCHAR char56
ENCODING 56
SWIDTH -1 0
DWIDTH 3 0
BBX 3 5 0 0
BITMAP
E0
A0
E0
A0
E0
ENDCHAR
STARTCHAR char57
ENCODING 57
SWIDTH -1 0
DWIDTH 3 0
BBX 3 5 0 0
BITMAP
E0
A0
E0
20
E0
ENDCHAR
STARTCHAR char58
ENCODING 58
SWIDTH -1 0
DWIDTH 1 0
BBX 1 3 0 1
BITMAP
80
00
80
ENDCHAR
STARTCHAR char59
ENCODING 59
SWIDTH -1 0
DWIDTH 2 0
BBX 2 4 0 0
BITMAP
40
00
40
80
ENDCHAR
STARTCHAR char60
ENCODING 60
SWIDTH -1 0
DWIDTH 3 0
BBX 3 2 0 3
BITMAP
A0
40
ENDCHAR
STARTCHAR char61
ENCODING 61
SWIDTH -1 0
DWIDTH 3 0
BBX 3 3 0 1
BITMAP
E0
00
E0
ENDCHAR
STARTCHAR char62
ENCODING 62
SWIDTH -1 0
DWIDTH 3 0
BBX 3 2 0 0
BITMAP
40
A0
ENDCHAR
STARTCHAR char63
ENCODING 63
SWIDTH -1 0
DWIDTH 3 0
BBX 3 5 0 0
BITMAP
C0
20
60
00
40
ENDCHAR
STARTCHAR char64
ENCODING 64
SWIDTH -1 0
DWIDTH 5 0
BBX 5 5 0 0
BITMAP
F8
88
B8
80
F0
ENDCHAR
STARTCHAR char65
ENCODING 65
SWIDTH -1 0
DWIDTH 3 0
BBX 3 5 0 0
BITMAP
C0
A0
E0
A0
A0
ENDCHAR
STARTCHAR char66
ENCODING 66
SWIDTH -1 0
DWIDTH 3 0
BBX 3 5 0 0
BITMAP
C0
A0
C0
A0
C0
ENDCHAR
STARTCHAR char67
ENCODING 67
SWIDTH -1 0
DWIDTH 3 0
BBX 3 5 0 0
BITMAP
E0
80
80
80
E0
ENDCHAR
STARTCHAR char68
ENCODING 68
SWIDTH -1 0
DWIDTH 3 0
BBX 3 5 0 0
BITMAP
C0
A0
A0
A0
C0
ENDCHAR
STARTCHAR char69
ENCODING 69
SWIDTH -1 0
DWIDTH 3 0
BBX 3 5 0 0
BITMAP
E0
80
E0
80
E0
ENDCHAR
STARTCHAR char70
ENCODING 70
SWIDTH -1 0
DWIDTH 3 0
BBX 3 5 0 0
BITMAP
E0
80
C0
80
80
ENDCHAR
STARTCHAR char71
ENCODING 71
SWIDTH -1 0
DWIDTH 3 0
BBX 3 5 0 0
BITMAP
E0
80
A0
A0
E0
ENDCHAR
STARTCHAR char72
ENCODING 72
SWIDTH -1 0
DWIDTH 3 0
BBX 3 5 0 0
BITMAP
A0
A0
E0
A0
A0
ENDCHAR
STARTCHAR char73
ENCODING 73
SWIDTH -1 0
DWIDTH 3 0
BBX 3 5 0 0
BITMAP
E0
40
40
40
E0
ENDCHAR
STARTCHAR char74
ENCODING 74
SWIDTH -1 0
DWIDTH 3 0
BBX 3 5 0 0
BITMAP
E0
20
20
20
C0
ENDCHAR
STARTCHAR char75
ENCODING 75
SWIDTH -1 0
DWIDTH 3 0
BBX 3 5 0 0
BITMAP
A0
A0
C0
A0
A0
ENDCHAR
STARTCHAR char76
ENCODING 76
SWIDTH -1 0
DWIDTH 3 0
BBX 3 5 0 0
BITMAP
80
80
80
80
E0
ENDCHAR
STARTCHAR char77
ENCODING 77
SWIDTH -1 0
DWIDTH 5 0
BBX 5 5 0 0
BITMAP
88
D8
A8
88
88
ENDCHAR
STARTCHAR char78
ENCODING 78
SWIDTH -1 0
DWIDTH 4 0
BBX 4 5 0 0
BITMAP
90
D0
B0
90
90
ENDCHAR
STARTCHAR char79
ENCODING 79
SWIDTH -1 0
DWIDTH 3 0
BBX 3 5 0 0
BITMAP
40
A0
A0
A0
40
ENDCHAR
STARTCHAR char80
ENCODING 80
SWIDTH -1 0
DWIDTH 3 0
BBX 3 5 0 0
BITMAP
E0
A0
C0
80
80
ENDCHAR
STARTCHAR char81
ENCODING 81
SWIDTH -1 0
DWIDTH 4 0
BBX 4 5 0 0
BITMAP
40
A0
A0
A0
70
ENDCHAR
STARTCHAR char82
ENCODING 82
SWIDTH -1 0
DWIDTH 3 0
BBX 3 5 0 0
BITMAP
C0
A0
C0
A0
A0
ENDCHAR
STARTCHAR char83
ENCODING 83
SWIDTH -1 0
DWIDTH 3 0
BBX 3 5 0 0
BITMAP
E0
80
E0
20
E0
ENDCHAR
STARTCHAR char84
ENCODING 84
SWIDTH -1 0
DWIDTH 3 0
BBX 3 5 0 0
BITMAP
E0
40
40
40
40
ENDCHAR
STARTCHAR char85
ENCODING 85
SWIDTH -1 0
DWIDTH 3 0
BBX 3 5 0 0
BITMAP
A0
A0
A0
A0
E0
ENDCHAR
STARTCHAR char86
ENCODING 86
SWIDTH -1 0
DWIDTH 3 0
BBX 3 5 0 0
BITMAP
A0
A0
A0
A0
40
ENDCHAR
STARTCHAR char87
ENCODING 87
SWIDTH -1 0
DWIDTH 5 0
BBX 5 5 0 0
BITMAP
88
88
88
A8
50
ENDCHAR
STARTCHAR char88
ENCODING 88
SWIDTH -1 0
DWIDTH 3 0
BBX 3 5 0 0
BITMAP
A0
A0
40
A0
A0
ENDCHAR
STARTCHAR char89
ENCODING 89
SWIDTH -1 0
DWIDTH 3 0
BBX 3 5 0 0
BITMAP
A0
A0
E0
20
C0
ENDCHAR
STARTCHAR char90
ENCODING 90
SWIDTH -1 0
DWIDTH 3 0
BBX 3 5 0 0
BITMAP
E0
20
40
80
E0
ENDCHAR
STARTCHAR char91
ENCODING 91
SWIDTH -1 0
DWIDTH 2 0
BBX 2 5 0 0
BITMAP
C0
80
80
80
C0
ENDCHAR
STARTCHAR char92
ENCODING 92
SWIDTH -1 0
DWIDTH 3 0
BBX 3 5 0 0
BITMAP
80
40
40
40
20
ENDCHAR
STARTCHAR char93
ENCODING 93
SWIDTH -1 0
DWIDTH 3 0
BBX 3 5 0 0
BITMAP
60
20
20
20
60
ENDCHAR
STARTCHAR char94
ENCODING 94
SWIDTH -1 0
DWIDTH 3 0
BBX 3 2 0 3
BITMAP
40
A0
ENDCHAR
STARTCHAR char95
ENCODING 95
SWIDTH -1 0
DWIDTH 3 0
BBX 3 1 0 0
BITMAP
E0
ENDCHAR
STARTCHAR char96
ENCODING 96
SWIDTH -1 0
DWIDTH 2 0
BBX 2 2 0 3
BITMAP
80
40
ENDCHAR
STARTCHAR char65
ENCODING 97
SWIDTH -1 0
DWIDTH 3 0
BBX 3 5 0 0
BITMAP
C0
A0
E0
A0
A0
ENDCHAR
STARTCHAR char66
ENCODING 98
SWIDTH -1 0
DWIDTH 3 0
BBX 3 5 0 0
BITMAP
C0
A0
C0
A0
C0
ENDCHAR
STARTCHAR char67
ENCODING 99
SWIDTH -1 0
DWIDTH 3 0
BBX 3 5 0 0
BITMAP
E0
80
80
80
E0
ENDCHAR
STARTCHAR char68
ENCODING 100
SWIDTH -1 0
DWIDTH 3 0
BBX 3 5 0 0
BITMAP
C0
A0
A0
A0
C0
ENDCHAR
STARTCHAR char69
ENCODING 101
SWIDTH -1 0
DWIDTH 3 0
BBX 3 5 0 0
BITMAP
E0
80
E0
80
E0
ENDCHAR
STARTCHAR char70
ENCODING 102
SWIDTH -1 0
DWIDTH 3 0
BBX 3 5 0 0
BITMAP
E0
80
C0
80
80
ENDCHAR
STARTCHAR char71
ENCODING 103
SWIDTH -1 0
DWIDTH 3 0
BBX 3 5 0 0
BITMAP
E0
80
A0
A0
E0
ENDCHAR
STARTCHAR char72
ENCODING 104
SWIDTH -1 0
DWIDTH 3 0
BBX 3 5 0 0
BITMAP
A0
A0
E0
A0
A0
ENDCHAR
STARTCHAR char73
ENCODING 105
SWIDTH -1 0
DWIDTH 3 0
BBX 3 5 0 0
BITMAP
E0
40
40
40
E0
ENDCHAR
STARTCHAR char74
ENCODING 106
SWIDTH -1 0
DWIDTH 3 0
BBX 3 5 0 0
BITMAP
E0
20
20
20
C0
ENDCHAR
STARTCHAR char75
ENCODING 107
SWIDTH -1 0
DWIDTH 3 0
BBX 3 5 0 0
BITMAP
A0
A0
C0
A0
A0
ENDCHAR
STARTCHAR char76
ENCODING 108
SWIDTH -1 0
DWIDTH 3 0
BBX 3 5 0 0
BITMAP
80
80
80
80
E0
ENDCHAR
STARTCHAR char77
ENCODING 109
SWIDTH -1 0
DWIDTH 5 0
BBX 5 5 0 0
BITMAP
88
D8
A8
88
88
ENDCHAR
STARTCHAR char78
ENCODING 110
SWIDTH -1 0
DWIDTH 4 0
BBX 4 5 0 0
BITMAP
90
D0
B0
90
90
ENDCHAR
STARTCHAR char79
ENCODING 111
SWIDTH -1 0
DWIDTH 3 0
BBX 3 5 0 0
BITMAP
40
A0
A0
A0
40
ENDCHAR
STARTCHAR char80
ENCODING 112
SWIDTH -1 0
DWIDTH 3 0
BBX 3 5 0 0
BITMAP
E0
A0
C0
80
80
ENDCHAR
STARTCHAR char81
ENCODING 113
SWIDTH -1 0
DWIDTH 4 0
BBX 4 5 0 0
BITMAP
40
A0
A0
A0
70
ENDCHAR
STARTCHAR char82
ENCODING 114
SWIDTH -1 0
DWIDTH 3 0
BBX 3 5 0 0
BITMAP
C0
A0
C0
A0
A0
ENDCHAR
STARTCHAR char83
ENCODING 115
SWIDTH -1 0
DWIDTH 3 0
BBX 3 5 0 0
BITMAP
E0
80
E0
20
E0
ENDCHAR
STARTCHAR char84
ENCODING 116
SWIDTH -1 0
DWIDTH 3 0
BBX 3 5 0 0
BITMAP
E0
40
40
40
40
ENDCHAR
STARTCHAR char85
ENCODING 117
SWIDTH -1 0
DWIDTH 3 0
BBX 3 5 0 0
BITMAP
A0
A0
A0
A0
E0
ENDCHAR
STARTCHAR char86
ENCODING 118
SWIDTH -1 0
DWIDTH 3 0
BBX 3 5 0 0
BITMAP
A0
A0
A0
A0
40
ENDCHAR
STARTCHAR char87
ENCODING 119
SWIDTH -1 0
DWIDTH 5 0
BBX 5 5 0 0
BITMAP
88
88
88
A8
50
ENDCHAR
STARTCHAR char88
ENCODING 120
SWIDTH -1 0
DWIDTH 3 0
BBX 3 5 0 0
BITMAP
A0
A0
40
A0
A0
ENDCHAR
STARTCHAR char89
ENCODING 121
SWIDTH -1 0
DWIDTH 3 0
BBX 3 5 0 0
BITMAP
A0
A0
E0
20
C0
ENDCHAR
STARTCHAR char90
ENCODING 122
SWIDTH -1 0
DWIDTH 3 0
BBX 3 5 0 0
BITMAP
E0
20
40
80
E0
ENDCHAR
STARTCHAR char123
ENCODING 123
SWIDTH -1 0
DWIDTH 3 0
BBX 3 5 0 0
BITMAP
60
40
80
40
60
ENDCHAR
STARTCHAR char124
ENCODING 124
SWIDTH -1 0
DWIDTH 2 0
BBX 2 5 0 0
BITMAP
40
40
40
40
40
ENDCHAR
STARTCHAR char125
ENCODING 125
SWIDTH -1 0
DWIDTH 3 0
BBX 3 5 0 0
BITMAP
C0
40
20
40
C0
ENDCHAR
STARTCHAR char126
ENCODING 126
SWIDTH -1 0
DWIDTH 3 0
BBX 3 2 0 2
BITMAP
40
E0
ENDCHAR
ENDFONT
